<svg width="1200" height="420" viewBox="0 0 1200 420" fill="none" xmlns="http://www.w3.org/2000/svg" role="img" aria-labelledby="title desc">
  <title id="title">Abdulrahman Alaasi - Software Engineer</title>
  <desc id="desc">A portfolio style GitHub header with desk-inspired cards, software stack notes, and AI systems theme.</desc>
  <rect width="1200" height="420" rx="18" fill="#F4EDE0"/>
  <path d="M0 0H1200V420H0V0Z" fill="url(#grain)" opacity=".18"/>
  <rect x="46" y="42" width="1108" height="336" rx="14" fill="#FFF9ED" stroke="#332820" stroke-width="3"/>
  <circle cx="90" cy="84" r="10" fill="#CF594A" stroke="#332820" stroke-width="2"/>
  <circle cx="122" cy="84" r="10" fill="#D7AA52" stroke="#332820" stroke-width="2"/>
  <circle cx="154" cy="84" r="10" fill="#7A9B77" stroke="#332820" stroke-width="2"/>
  <text x="82" y="143" font-family="'Courier New', monospace" font-size="22" fill="#B65341">// full-stack developer + AI systems builder</text>
  <text x="80" y="204" font-family="Georgia, 'Times New Roman', serif" font-size="60" font-weight="700" fill="#2C241D">Abdulrahman Alaasi</text>
  <text x="84" y="250" font-family="Georgia, 'Times New Roman', serif" font-size="27" fill="#4A3B30">Software Engineering student in Riyadh.</text>
  <text x="84" y="288" font-family="Georgia, 'Times New Roman', serif" font-size="27" fill="#4A3B30">Building Django backends, React UIs, and RAG tools.</text>
  <g transform="translate(830 96)">
    <rect width="286" height="198" rx="10" fill="#E8F0DC" stroke="#332820" stroke-width="3"/>
    <rect x="18" y="22" width="250" height="26" rx="4" fill="#332820"/>
    <text x="32" y="41" font-family="'Courier New', monospace" font-size="14" fill="#F4EDE0">currently shipping</text>
    <rect x="22" y="70" width="112" height="42" rx="7" fill="#FFF9ED" stroke="#332820" stroke-width="2"/>
    <text x="37" y="97" font-family="'Courier New', monospace" font-size="14" fill="#332820">Yamamer</text>
    <rect x="150" y="70" width="112" height="42" rx="7" fill="#FFF9ED" stroke="#332820" stroke-width="2"/>
    <text x="171" y="97" font-family="'Courier New', monospace" font-size="14" fill="#332820">RAG AI</text>
    <path d="M42 150C76 120 102 178 138 146C172 116 198 164 238 132" stroke="#CF594A" stroke-width="6" stroke-linecap="round"/>
    <circle cx="42" cy="150" r="7" fill="#CF594A"/>
    <circle cx="138" cy="146" r="7" fill="#CF594A"/>
    <circle cx="238" cy="132" r="7" fill="#CF594A"/>
  </g>
  <g transform="translate(80 324)">
    <rect width="158" height="36" rx="18" fill="#332820"/>
    <text x="22" y="24" font-family="'Courier New', monospace" font-size="14" fill="#F4EDE0">React</text>
    <rect x="172" width="158" height="36" rx="18" fill="#CF594A"/>
    <text x="195" y="24" font-family="'Courier New', monospace" font-size="14" fill="#FFF9ED">Django</text>
    <rect x="344" width="158" height="36" rx="18" fill="#7A9B77"/>
    <text x="366" y="24" font-family="'Courier New', monospace" font-size="14" fill="#FFF9ED">Postgres</text>
    <rect x="516" width="158" height="36" rx="18" fill="#5D7FA3"/>
    <text x="541" y="24" font-family="'Courier New', monospace" font-size="14" fill="#FFF9ED">LLMs</text>
  </g>
  <defs>
    <pattern id="grain" width="18" height="18" patternUnits="userSpaceOnUse">
      <circle cx="2" cy="2" r="1" fill="#332820"/>
      <circle cx="12" cy="8" r="1" fill="#332820"/>
      <circle cx="6" cy="15" r="1" fill="#332820"/>
    </pattern>
  </defs>
</svg>
