<svg width="760" height="320" viewBox="0 0 760 320" fill="none" xmlns="http://www.w3.org/2000/svg" role="img" aria-labelledby="title desc">
  <title id="title">Yamamer AI Assistant project card</title>
  <desc id="desc">A stylized dashboard card for a RAG university assistant.</desc>
  <rect width="760" height="320" rx="18" fill="#E8F0DC"/>
  <rect x="32" y="30" width="696" height="260" rx="13" fill="#FFF9ED" stroke="#332820" stroke-width="3"/>
  <text x="58" y="78" font-family="'Courier New', monospace" font-size="18" fill="#B65341">// featured system</text>
  <text x="58" y="122" font-family="Georgia, serif" font-size="38" font-weight="700" fill="#2C241D">Yamamer AI Assistant</text>
  <text x="60" y="158" font-family="Georgia, serif" font-size="21" fill="#4A3B30">RAG assistant for academic workflows,</text>
  <text x="60" y="184" font-family="Georgia, serif" font-size="21" fill="#4A3B30">knowledge search, and student support.</text>
  <rect x="58" y="212" width="144" height="38" rx="19" fill="#332820"/>
  <text x="82" y="237" font-family="'Courier New', monospace" font-size="14" fill="#F4EDE0">Django REST</text>
  <rect x="216" y="212" width="118" height="38" rx="19" fill="#CF594A"/>
  <text x="240" y="237" font-family="'Courier New', monospace" font-size="14" fill="#FFF9ED">React</text>
  <rect x="348" y="212" width="136" height="38" rx="19" fill="#5D7FA3"/>
  <text x="371" y="237" font-family="'Courier New', monospace" font-size="14" fill="#FFF9ED">pgvector</text>
  <g transform="translate(548 72)">
    <circle cx="64" cy="64" r="52" fill="#332820"/>
    <g>
      <animateTransform attributeName="transform" type="rotate" from="0 64 64" to="360 64 64" dur="12s" repeatCount="indefinite"/>
      <path d="M32 68H96M64 36V100M42 44C78 78 86 86 92 94M88 42C52 76 44 86 36 96" stroke="#F4EDE0" stroke-width="6" stroke-linecap="round"/>
    </g>
    <circle cx="64" cy="64" r="18" fill="#CF594A">
      <animate attributeName="r" values="18;23;18" dur="2.8s" repeatCount="indefinite"/>
    </circle>
  </g>
</svg>
